<?xml version="1.0" encoding="utf-8"?>
<!-- Generator: Adobe Illustrator 21.0.0, SVG Export Plug-In . SVG Version: 6.00 Build 0)  -->
<svg version="1.1" id="Capa_1" xmlns="http://www.w3.org/2000/svg" xmlns:xlink="http://www.w3.org/1999/xlink" x="0px" y="0px"
	 viewBox="0 0 341 268" style="enable-background:new 0 0 341 268;" xml:space="preserve">
<g>
	<path d="M115.4,268c-33.1,0-65.8-9.2-94.7-26.5L0,229.1l24,0.4c0.8,0,2,0.1,4,0.1c9.1,0,38.3-1.5,68.1-18.3
		c-22.4-6.7-41-24.1-48.6-46.8l-3.8-11.3l10.3,2.7c-16.5-12.7-27.3-32.2-28.5-54L25,91.5l9.6,4.2c1.7,0.8,3.5,1.4,5.3,2
		C26.3,78.6,18,49.2,35.2,18l4.7-8.6l6,7.8c28.7,37.2,71.3,59.9,117.7,63c-0.3-2.9-0.5-5.5-0.5-6.4c0-34.5,26.2-70.2,70.1-70.2
		c18.4,0,36.2,7.3,49.2,20.2c17.5-4.1,34.2-14.3,34.4-14.5L332,0l-5.7,16.9C323.6,25,319.4,32.5,314,39c2.9-1,5.8-2.1,8.8-3.4
		l18.2-8.9l-7.7,16.5c-6.3,13.6-16.9,24.8-30,32c2.9,45-15.6,95.3-48.9,132.2c-24.7,27.4-68.7,60.2-138,60.6L115.4,268z M47.8,241
		c21.4,9.3,44.4,14.1,67.5,14.1l1.1,0c64.6-0.4,105.5-30.9,128.5-56.3c32-35.5,49.4-84.1,45.3-126.8l-0.4-4.5l4.1-1.9
		c6.5-3,12.4-7.3,17.3-12.4c-5.5,1.4-11.3,2.4-18.1,3.2l-4.9,0.6l-3.8-9.8l4.5-3.4c6.3-3.7,11.7-8.5,16.1-14.1
		c-7,3-15.2,5.9-23.5,7.4l-3.5,0.7l-2.4-2.7c-10.8-11.9-26.2-18.7-42.3-18.7c-35.8,0-57.3,29.2-57.3,57.3c0,1.7,0.8,9.5,1.1,11.5
		l2.9,8.3l-9.3-0.2c-49.7-1.1-96-22.9-128.5-60.2C29.5,66.9,51,93.9,61.3,102l15.1,11.8l-19.1-0.3c-6-0.1-11.9-0.9-17.5-2.4
		c5.1,22.6,22.9,40.7,46,45.7l25.3,5.5l-25,7c-4.3,1.2-9.3,1.8-14.7,1.8c-2.5,0-4.9-0.1-7.2-0.3c10,17.7,28.7,29.6,49.4,30.6
		l18.1,0.9l-14.6,10.7C92.3,231.3,66.3,238.4,47.8,241z"/>
</g>
</svg>
