<?xml version="1.0" encoding="utf-8"?>
<!-- Generator: Adobe Illustrator 21.0.0, SVG Export Plug-In . SVG Version: 6.00 Build 0)  -->
<svg version="1.1" id="Layer_1" xmlns="http://www.w3.org/2000/svg" xmlns:xlink="http://www.w3.org/1999/xlink" x="0px" y="0px"
	 viewBox="0 0 390 479" style="enable-background:new 0 0 390 479;" xml:space="preserve">
<g>
	<path d="M325.7,254.7c-0.5-60.6,49.6-90,51.8-91.4c-28.4-41.3-72.5-47-87.9-47.5c-36.9-3.9-72.8,22.2-91.6,22.2
		c-19.1,0-48.3-21.7-79.4-21.1c-40.1,0.7-77.9,23.9-98.4,60.1c-42.5,73.6-10.8,181.8,30,241.3c20.5,29.1,44.2,61.8,75.5,60.6
		c30.5-1.2,42-19.5,78.7-19.5c36.6,0,47.2,19.5,79.1,18.8c32.8-0.5,53.3-29.3,73.1-58.7c23.5-33.3,33-66.3,33.4-68
		C389.2,351.2,326.3,327.1,325.7,254.7"/>
	<path d="M265.5,76.8C282,56.3,293.1,28.4,290.1,0c-23.7,1-53.5,16.4-70.6,36.5c-15.1,17.8-28.6,46.7-25.2,74
		C221,112.5,248.4,97,265.5,76.8"/>
</g>
</svg>
