<svg xmlns="http://www.w3.org/2000/svg" xmlns:xlink="http://www.w3.org/1999/xlink"
	 viewBox="0 0 46 34">
	<path d="M16.9,0c0,0-6.4,0.4-10.5,3.8c0,0,0,0-0.1,0C5.6,4.5,5,5.5,4.4,7s-1.4,3.4-2,5.5C1.1,16.8,0,22.1,0,27c0,0.2,0,0.3,0.1,0.5
		c1.5,2.6,4.1,4.1,6.7,5.1s4.8,1.4,6,1.4c0.3,0,0.6-0.1,0.8-0.4l2.4-3.4c2,0.5,4.3,0.8,6.9,0.8s5-0.3,6.9-0.8l2.4,3.4
		c0.2,0.3,0.5,0.4,0.8,0.4c1.2,0,3.5-0.4,6-1.4s5.2-2.5,6.7-5.1C46,27.3,46,27.2,46,27c0-4.9-1.1-10.2-2.3-14.5
		c-0.6-2.1-1.4-4-2-5.5s-1.2-2.5-1.9-3.2c0,0,0,0-0.1,0C35.5,0.4,29.1,0,29.1,0c-0.1,0-0.1,0-0.2,0c-0.3,0-0.6,0.3-0.8,0.6
		c0,0-0.3,0.7-0.6,1.8C25.6,2.1,23.9,2,23,2s-2.6,0.1-4.5,0.4c-0.2-1.1-0.6-1.8-0.6-1.8C17.7,0.2,17.3,0,16.9,0z M16.3,2.2
		c0.1,0.2,0.1,0.4,0.2,0.6c-2.3,0.5-4.7,1.4-7,2.8C9.1,5.8,8.8,6.1,8.8,6.5c0,0.4,0.2,0.8,0.6,0.9c0.4,0.2,0.8,0.1,1.1-0.1
		C15.1,4.4,21,4,23,4s7.9,0.4,12.5,3.3c0.3,0.3,0.7,0.3,1.1,0.1c0.4-0.2,0.6-0.5,0.6-0.9c0-0.4-0.3-0.7-0.6-0.9
		c-2.3-1.4-4.8-2.3-7-2.8c0.1-0.2,0.1-0.4,0.2-0.6c1.1,0.1,5.6,0.7,8.6,3.1c0.2,0.2,0.9,1.2,1.5,2.6s1.3,3.2,1.9,5.2
		c1.2,4,2.2,9,2.3,13.6c-1.1,1.8-3.3,3.2-5.5,4.1c-2,0.8-3.9,1.1-4.8,1.2L32,29.7c0.9-0.3,1.6-0.6,2.3-0.9c2.5-1.1,3.9-2.3,3.9-2.3
		c0.4-0.4,0.4-1,0.1-1.4c-0.4-0.4-1-0.4-1.4-0.1c0,0-1,1-3.3,2c-0.8,0.4-1.9,0.7-3,1.1c-0.3,0-0.5,0-0.8,0.2
		C27.8,28.7,25.6,29,23,29c-2.6,0-4.8-0.3-6.7-0.8c-0.2-0.1-0.5-0.2-0.7-0.2c-1.2-0.3-2.2-0.7-3-1.1c-2.3-1-3.3-2-3.3-2
		c-0.2-0.2-0.5-0.3-0.8-0.2c-0.4,0.1-0.7,0.3-0.8,0.7c-0.1,0.4,0,0.8,0.3,1c0,0,1.4,1.2,3.9,2.3c0.7,0.3,1.5,0.6,2.3,0.9l-1.7,2.3
		c-1-0.1-2.8-0.4-4.8-1.2c-2.2-0.9-4.3-2.2-5.5-4.1c0-4.6,1-9.5,2.3-13.6C4.9,11,5.6,9.2,6.2,7.8s1.3-2.4,1.5-2.6
		C10.7,2.9,15.1,2.3,16.3,2.2z M16.5,14c-2.6,0-4.5,2.3-4.5,5s1.9,5,4.5,5s4.5-2.3,4.5-5S19.1,14,16.5,14z M29.5,14
		c-2.6,0-4.5,2.3-4.5,5s1.9,5,4.5,5s4.5-2.3,4.5-5S32.1,14,29.5,14z M16.5,16c1.3,0,2.5,1.3,2.5,3c0,1.7-1.2,3-2.5,3S14,20.7,14,19
		C14,17.3,15.2,16,16.5,16z M29.5,16c1.3,0,2.5,1.3,2.5,3c0,1.7-1.2,3-2.5,3S27,20.7,27,19C27,17.3,28.2,16,29.5,16z"/>
</svg>
