<?xml version="1.0" encoding="utf-8"?>
<!-- Generator: Adobe Illustrator 21.0.0, SVG Export Plug-In . SVG Version: 6.00 Build 0)  -->
<svg version="1.1" id="Layer_1" xmlns="http://www.w3.org/2000/svg" xmlns:xlink="http://www.w3.org/1999/xlink" x="0px" y="0px"
	 viewBox="0 0 268 315" style="enable-background:new 0 0 268 315;" xml:space="preserve">
<g>
	<path d="M30.8,298.1c16.6,2,35.2,12.7,50.8,14.6c15.7,2,20.5-10.7,20.5-10.7s17.7-4,36.2-4.4c18.6-0.5,36.2,3.9,36.2,3.9
		s3.4,7.8,9.8,11.2c6.4,3.5,20.1,4,28.9-5.3s32.3-21.1,45.5-28.4c13.3-7.4,10.8-18.6,2.5-22c-8.3-3.4-15.2-8.8-14.6-19.1
		c0.5-10.2-7.4-17.1-7.4-17.1s6.8-22.5,0.5-41.2c-6.4-18.6-27.4-48.5-43.5-70.9C180,86.1,193.7,60.1,179,26.8S126.2-4.5,105.6,9.7
		C85.1,23.9,91.4,59.1,92.4,75.8c1,16.6,0.5,28.5-1.4,32.8c-1.9,4.3-15.2,20.1-24,33.3c-8.8,13.3-15.2,40.7-21.6,52
		c-6.3,11.2-1.9,21.5-1.9,21.5s-4.4,1.5-7.9,8.9c-3.4,7.3-10.2,10.8-22.5,13.1c-12.2,2.5-12.2,10.4-9.3,19.2c3,8.8,0,13.7-3.4,25
		C-3,292.7,14.1,296.1,30.8,298.1z M203.3,246.8c8.7,3.8,21.2-1.5,25.1-5.3c3.8-3.8,6.5-9.5,6.5-9.5s3.8,1.9,3.4,7.9
		c-0.4,6.1,2.6,14.8,8.3,17.9c5.7,3,14.4,7.2,9.9,11.4c-4.6,4.2-30.1,14.5-37.7,22.5c-7.5,8-17.5,14.5-23.5,12.5
		c-6.1-1.9-11.4-10.2-8.8-22.4c2.7-12.2,5-25.5,4.6-33.1c-0.4-7.6-1.9-17.9,0-19.4c1.9-1.5,4.9-0.8,4.9-0.8S194.5,243,203.3,246.8z
		 M146.7,41c8.4,0,15.2,8.3,15.2,18.6c0,7.3-3.4,13.6-8.4,16.6c-1.3-0.5-2.6-1.1-4-1.7c3-1.5,5.1-5.3,5.1-9.7c0-5.8-3.5-10.5-8-10.5
		c-4.3,0-7.9,4.7-7.9,10.5c0,2.1,0.5,4.2,1.4,5.9c-2.6-1.1-5-2-6.9-2.7c-1-2.5-1.6-5.3-1.6-8.3C131.5,49.4,138.3,41,146.7,41z
		 M125.9,73.1c4.1,0.7,15.5,5.6,19.7,7.2c4.2,1.4,8.9,4.1,8.4,6.8c-0.5,2.8-2.7,2.8-8.4,6.3c-5.6,3.4-18,11-21.9,11.6
		c-3.9,0.5-6.2-1.7-10.4-4.4c-4.2-2.8-12.1-9.2-10.1-12.6c0,0,6.2-4.7,8.9-7.1C114.8,78.2,121.7,72.3,125.9,73.1z M107.8,44
		c6.6,0,12,7.9,12,17.6c0,1.8-0.2,3.4-0.5,5.1c-1.6,0.5-3.3,1.4-4.9,2.8c-0.8,0.7-1.5,1.2-2.1,1.9c1-2,1.4-4.8,1-7.8
		c-0.9-5.2-4.5-9.1-7.9-8.6c-3.5,0.6-5.6,5.4-4.7,10.7c0.9,5.4,4.4,9.3,7.9,8.7c0.2-0.1,0.4-0.1,0.6-0.2c-1.7,1.6-3.3,3.1-4.9,4.3
		c-4.8-2.2-8.3-8.9-8.3-16.8C95.9,51.8,101.2,44,107.8,44z M70.9,171.2c6.8-10.8,11.2-34.3,18-42.1c6.9-7.8,12.2-24.4,9.8-31.8
		c0,0,14.7,17.6,24.9,14.7c10.2-3,33.3-20.1,36.7-17.2c3.4,3,32.7,67.5,35.7,88.1c3,20.5-2,36.3-2,36.3s-11.2-3-12.7,3.9
		C180,230,180,255,180,255s-15.2,21-38.7,24.5c-23.5,3.4-35.2,0.9-35.2,0.9l-13.2-15.1c0,0,10.2-1.5,8.8-11.8
		c-1.4-10.2-31.3-24.4-36.7-37.2C59.6,203.5,64,182,70.9,171.2z M12.9,248.3c1.2-5,16.4-5,22.2-8.6c5.8-3.5,7-13.7,11.7-16.4
		c4.7-2.8,13.3,7,16.8,12.5c3.5,5.4,16.8,28.9,22.2,34.8c5.5,5.9,10.6,13.7,9,20.8c-1.5,7-9.8,12.2-9.8,12.2
		c-7.4,2.3-28.1-6.6-37.5-10.6s-33.3-5.1-36.4-8.6c-3.2-3.5,1.5-11.4,2.8-18.8C15.1,258,11.7,253.4,12.9,248.3z"/>
</g>
</svg>
