<svg xmlns="http://www.w3.org/2000/svg" xmlns:xlink="http://www.w3.org/1999/xlink" viewBox="0 0 234 256">
    <path d="M0.2,5.3C0.1,5.9,0,6.5,0,7.1v243.4c0,2.8,1.3,4.8,3.3,5.5l129.6-123.4L0.2,5.3L0.2,5.3zM5,0.1c2.1-0.4,4.5,0,7,1.4c6,3.3,107.8,59.8,107.8,59.8l55.6,30.8l-37.3,35.6L5,0.1L5,0.1z M168.8,166.9l-27.6,15.3L119.8,194c0,0-73.1,40.5-100.4,55.7l118.5-112.4L168.8,166.9L168.8,166.9z M175.3,163.3l0.4-0.2c0,0,47.5-26.3,53.8-29.8c6.3-3.5,5.7-8.3,0.4-11c-4.2-2.1-34.7-19.2-48-26.6l-38.8,36.8L175.3,163.3L175.3,163.3z"/>
</svg>
