<svg xmlns="http://www.w3.org/2000/svg" xmlns:xlink="http://www.w3.org/1999/xlink"
	 viewBox="0 0 147 289" style="enable-background:new 0 0 147 289;" xml:space="preserve">
<g>
	<path d="M96.2,289h-62V159.4H0V99.9h34.2V66.5C34.2,35.8,53.3,0,107.3,0c19,0,33,1.8,33.6,1.9l5.7,0.7l-1.4,55.7l-6.3-0.1
		c0,0-14.2-0.1-29.7-0.1c-11.5,0-13,2.8-13,14.2v27.6H147l-2.8,59.5h-48L96.2,289L96.2,289L96.2,289z M47,276.1h36.4V146.6h48.6
		l1.6-33.8H83.4V72.3c0-13.4,3.1-27,25.9-27c9.2,0,17.9,0,23.5,0.1l0.8-31.3c-5.7-0.5-15.1-1.2-26.2-1.2C62.8,12.9,47,40.6,47,66.5
		v46.3H12.8v33.8H47L47,276.1L47,276.1L47,276.1z"/>
</g>
</svg>
