<?xml version="1.0" encoding="utf-8"?>
<!-- Generator: Adobe Illustrator 21.0.0, SVG Export Plug-In . SVG Version: 6.00 Build 0)  -->
<svg version="1.1" id="Layer_1" xmlns="http://www.w3.org/2000/svg" xmlns:xlink="http://www.w3.org/1999/xlink" x="0px" y="0px"
	 viewBox="0 0 31 26" style="enable-background:new 0 0 31 26;" xml:space="preserve">
<path d="M18.2,0c-2.1,0-3.8,1.7-3.8,3.8c0,0,0,0,0,0v3.5c-2.6,0.1-5.2,0.8-7.5,2.1C6.2,8.7,5.1,8.3,4,8.3C2.9,8.3,1.8,8.7,1,9.6v0
	l0,0c-0.8,1-1.1,2.3-0.9,3.5c0.2,1.3,1,2.4,2,3.1c0,0.1,0,0.2,0,0.4c0,2.7,1.6,5.1,4.1,6.7c2.8,1.8,6.1,2.7,9.4,2.6
	c3.3,0.1,6.6-0.9,9.4-2.6c2.4-1.6,4.1-4,4.1-6.7c0-0.1,0-0.2,0-0.4c1.1-0.7,1.8-1.8,2-3.1c0.2-1.2-0.1-2.5-0.9-3.5l0,0
	c-0.8-0.9-1.9-1.3-3.1-1.3c-1.1,0-2.1,0.4-2.9,1.1c-2.3-1.3-4.9-2-7.5-2.1V3.8c-0.1-0.9,0.6-1.6,1.4-1.7c0.1,0,0.2,0,0.3,0
	c0.8,0.1,1.5,0.3,2.2,0.6c1.1,0.4,2.3,0.7,3.5,0.7c0.5,1.3,1.9,2.1,3.3,1.6s2-1.9,1.6-3.3s-1.9-2.1-3.3-1.6
	c-0.6,0.2-1.1,0.6-1.4,1.2c-1-0.1-2-0.3-2.9-0.6C20.2,0.3,19.2,0.1,18.2,0z M15.5,9.4c2.9-0.1,5.7,0.7,8.2,2.3c2,1.4,3.2,3.1,3.2,5
	s-1.1,3.6-3.2,5c-2.5,1.5-5.3,2.3-8.2,2.3c-2.9,0.1-5.7-0.7-8.2-2.3c-2-1.4-3.2-3.1-3.2-5s1.1-3.6,3.2-5C9.8,10.1,12.6,9.3,15.5,9.4
	z M4,10.4c0.4,0,0.8,0.1,1.1,0.3c-1.1,0.9-2,2-2.5,3.3c-0.3-0.3-0.4-0.7-0.5-1.1c-0.1-0.6,0-1.3,0.4-1.9c0,0,0,0,0,0
	C3,10.6,3.5,10.4,4,10.4z M27,10.4c0.5,0,1.1,0.2,1.5,0.6c0,0,0,0,0,0c0.4,0.5,0.5,1.2,0.4,1.9c-0.1,0.4-0.2,0.8-0.5,1.1
	c-0.6-1.3-1.4-2.4-2.5-3.3C26.2,10.5,26.6,10.4,27,10.4z M10.3,12.5c-1.1,0-2.1,0.9-2.1,2.1c0,1.1,0.9,2.1,2.1,2.1
	c1.1,0,2.1-0.9,2.1-2.1l0,0C12.4,13.4,11.5,12.5,10.3,12.5C10.3,12.5,10.3,12.5,10.3,12.5z M20.7,12.5c-1.1,0-2.1,0.9-2.1,2.1
	c0,1.1,0.9,2.1,2.1,2.1c1.1,0,2.1-0.9,2.1-2.1l0,0C22.7,13.4,21.8,12.5,20.7,12.5C20.7,12.5,20.7,12.5,20.7,12.5z M20.9,18.2
	c-1.5,1.3-3.5,1.9-5.4,1.8c-1.9,0.1-3.8-0.5-5.4-1.7c0.9,2.2,3.1,3.5,5.4,3.5C17.9,21.9,20,20.5,20.9,18.2z"/>
</svg>
