<?xml version="1.0" encoding="utf-8"?>
<!-- Generator: Adobe Illustrator 21.0.0, SVG Export Plug-In . SVG Version: 6.00 Build 0)  -->
<svg version="1.1" id="Layer_1" xmlns="http://www.w3.org/2000/svg" xmlns:xlink="http://www.w3.org/1999/xlink" x="0px" y="0px"
	 viewBox="0 0 980 980" style="enable-background:new 0 0 980 980;" xml:space="preserve">
<g>
	<path d="M490,0C219.4,0,0,225.1,0,502.4c0,222,140.4,410.1,335.1,476.6c3.1,0.7,5.7,0.9,8.3,0.9c18.2,0,25.2-13.3,25.2-24.9
		c0-12-0.4-43.5-0.7-85.5c-18.4,4.2-34.8,5.9-49.4,5.9c-94.3,0-115.7-73.3-115.7-73.3c-22.3-58-54.5-73.5-54.5-73.5
		c-42.7-30-0.2-30.8,3.1-30.8c0.2,0,0.2,0,0.2,0c49.2,4.4,75,52.1,75,52.1c24.5,42.9,57.3,54.9,86.6,54.9c23,0,43.8-7.4,56-13.1
		c4.4-32.4,17.1-54.5,31.1-67.2c-108.7-12.7-223.1-55.8-223.1-248.2c0-54.9,19-99.8,50.3-134.8c-5-12.7-21.9-63.9,4.8-133
		c0,0,3.5-1.1,10.9-1.1c17.7,0,57.8,6.8,123.8,52.7c39.2-11.2,80.9-16.6,122.7-16.8c41.6,0.2,83.6,5.7,122.7,16.8
		c66.1-45.9,106.1-52.7,123.8-52.7c7.4,0,10.9,1.1,10.9,1.1c26.7,69.1,9.8,120.3,4.8,133c31.3,35.2,50.3,80.1,50.3,134.8
		c0,192.9-114.6,235.4-223.8,247.7c17.5,15.5,33.3,46.2,33.3,93c0,67.2-0.7,121.4-0.7,137.8c0,11.8,6.8,25.2,24.9,25.2
		c2.6,0,5.7-0.2,8.8-0.9C839.8,912.4,980,724.2,980,502.4C980,225.1,760.6,0,490,0z M318.5,910c4.8,0,9.6-0.2,14.7-0.4
		c0,6.1,0,12,0.2,17.3c0,5.3,0,10.1,0.2,14.2c-34.1-12.7-66.3-29.5-96.5-50.3C258.6,902.4,285.5,910,318.5,910z M343.4,750.6
		c-1.7,4.8-3.3,9.8-4.6,15.1c-7.4,2.2-16.4,3.9-25.6,3.9c-23.8,0-41.6-11.8-56-37c-5.3-10.1-14.9-23.4-28.2-35.7
		C265.8,727.9,308.4,742.7,343.4,750.6z M759.1,879.4c-34.6,26-72.2,46.6-111.6,61.7c0-4.2,0-9,0-14.2c0-26,0-65.2,0-110.3
		c0-27.1-4.6-49.2-10.9-66.7c81.4-18.2,201.3-73.7,201.3-274.2c0-53.8-15.5-101.7-46.4-142.4c6.8-28.2,12-77.9-11.2-137.8l-5.9-15.5
		l-15.8-5.3c-3.3-1.1-10.5-2.8-21.9-2.8c-25.2,0-67.6,9-130.2,49.9c-37.2-9.2-76.1-14-116.2-14H490h-0.2c-40,0-79.2,4.8-116.2,14
		C311,181,268.6,172,243.4,172c-11.4,0-18.6,2-21.9,3.1l-15.8,5.3l-5.9,15.5c-23.2,60.2-17.9,109.8-11.2,137.8
		c-30.8,40.9-46.4,88.8-46.4,142.4c0,108.5,35,174.8,80.1,215.5c-17.5-14.6-40.5-26.6-68.1-28.6h-1.1H152h-0.7
		c-28.7,0-48.8,11.8-55.1,32.2c-10.3,32.4,21.4,54.7,31.9,62.1l1.1,1.3l3.3,1.3c3.5,2.2,22.1,15.3,37,53.6
		c4.4,13.6,13.8,31.7,29.8,48.6c-28.7-24.5-54.3-52.5-76.3-83.3c-57.6-80.5-88-176.1-88-276.2c0-63.2,12-124.5,35.9-182.2
		c23-55.8,55.8-105.7,97.8-148.5c41.8-42.9,90.6-76.6,144.6-100C369.2,47.5,428.8,35,490,35s120.8,12.3,176.8,36.5
		c54.3,23.4,102.8,57.1,144.6,100s74.8,93,97.8,148.5c23.8,57.8,35.8,119,35.8,182.3c0,100.2-30.2,195.8-87.7,276.2
		C829.7,817.1,796.7,851,759.1,879.4z"/>
</g>
</svg>
